M48
INCH,TZ
T1C0.032
T2C0.059
T3C0.138
%
G90
G05
T1
X33865Y-21340
X34865Y-21340
X35865Y-21340
X36000Y-24750
X36865Y-21340
X37000Y-24750
X37465Y-40340
X37865Y-21340
X38465Y-40340
X38865Y-21340
X39465Y-40340
X39865Y-21340
X40219Y-24250
X40465Y-40340
X40865Y-21340
X41465Y-40340
X42465Y-21340
X42465Y-40340
X43465Y-21340
X44219Y-24250
X44465Y-21340
X44465Y-40340
X45465Y-21340
X45465Y-40340
X46465Y-21340
X46465Y-40340
X47465Y-21340
X47465Y-40340
X48465Y-21340
X48465Y-40340
X49465Y-21340
X49465Y-40340
T2
X48500Y-26000
X48500Y-28000
X48500Y-30000
X48500Y-32000
X48500Y-34000
X48500Y-36000
X53850Y-26500
X53850Y-28500
X53850Y-33500
X53850Y-37500
T3
X50460Y-38340
T0
M30
